<?xml version="1.0" encoding="utf-8"?>
<!-- Generator: Adobe Illustrator 23.0.6, SVG Export Plug-In . SVG Version: 6.00 Build 0)  -->
<svg version="1.1" id="Layer_1" xmlns="http://www.w3.org/2000/svg" xmlns:xlink="http://www.w3.org/1999/xlink" x="0px" y="0px"
	 viewBox="0 0 482.4 175.4" style="enable-background:new 0 0 482.4 175.4;" xml:space="preserve">
<style type="text/css">
	.st0{fill:#FFFFFF;stroke:#000000;stroke-miterlimit:10;}
</style>
<a xlink:href="P0" >
	<path id="P0" class="st0" d="M230.1,87.7c0,44.3-51.4,80.1-114.8,80.1S0.5,131.9,0.5,87.7S51.9,7.6,115.3,7.6
		C178.6,7.5,230.1,43.4,230.1,87.7z"/>
</a>
<a xlink:href="AB" >
	<path id="AB" class="st0" d="M369.6,87.7c0-25.1,12-47,29.6-58.2c-15.2-17.8-37.2-29-61.7-29c-45.8,0-82.9,39.1-82.9,87.2
		s37.1,87.2,82.9,87.2c24.5,0,46.5-11.2,61.7-29C381.5,134.7,369.6,112.8,369.6,87.7z"/>
</a>
<a xlink:href="P1" >
	<path id="P1" class="st0" d="M481.9,87.7c0,36.6-25.3,66.3-56.6,66.3c-31.2,0-56.6-29.7-56.6-66.3s25.3-66.3,56.6-66.3
		C456.6,21.4,481.9,51.1,481.9,87.7z"/>
</a>
</svg>



























































































